<svg xmlns="http://www.w3.org/2000/svg" xmlns:xlink="http://www.w3.org/1999/xlink" preserveAspectRatio="xMidYMid" width="70.375" height="61.53" viewBox="0 0 70.375 61.53">
  <defs>
    <style>
      .cls-1 {
        fill: #9f449b;
        fill-rule: evenodd;
      }
    </style>
  </defs>
  <path d="M64.200,35.561 C63.934,35.825 39.894,59.598 39.894,59.598 C37.293,62.170 33.086,62.170 30.485,59.598 C30.485,59.598 8.531,37.887 6.179,35.561 C-2.048,27.422 -2.048,14.231 6.179,6.095 C14.164,-1.803 26.920,-1.969 35.189,5.462 C43.459,-1.969 56.218,-1.803 64.200,6.095 C72.427,14.231 72.427,27.422 64.200,35.561 ZM61.063,9.195 C54.811,3.010 44.754,2.793 38.172,8.708 L35.189,11.387 L32.208,8.708 C25.625,2.793 15.571,3.010 9.317,9.195 C2.829,15.609 2.829,26.045 9.317,32.459 L33.623,56.496 C34.484,57.352 35.893,57.352 36.756,56.496 L61.063,32.459 C67.550,26.045 67.550,15.609 61.063,9.195 ZM20.349,13.204 L20.347,13.204 C16.402,13.204 13.202,16.400 13.202,20.341 L13.202,20.343 C13.202,20.950 12.710,21.442 12.102,21.442 C11.494,21.442 11.003,20.950 11.003,20.343 C11.003,15.190 15.184,11.014 20.340,11.010 C20.345,11.010 20.345,11.007 20.349,11.007 C20.957,11.007 21.448,11.498 21.448,12.106 C21.448,12.713 20.957,13.204 20.349,13.204 Z" class="cls-1"/>
</svg>
