<svg xmlns="http://www.w3.org/2000/svg" xmlns:xlink="http://www.w3.org/1999/xlink" preserveAspectRatio="xMidYMid" width="94" height="101" viewBox="0 0 94 101">
  <defs>
    <style>
      .cls-1 {
        fill: #fff;
        stroke: #fff;
        stroke-linejoin: round;
        stroke-width: 4px;
        fill-opacity: 0.1;
        fill-rule: evenodd;
      }
    </style>
  </defs>
  <path d="M36.961,91.305 C30.268,87.285 23.509,83.382 16.681,79.597 C9.853,75.811 6.507,70.015 6.643,62.209 C6.778,54.404 6.778,46.598 6.643,38.792 C6.507,30.987 9.853,25.191 16.681,21.405 C23.509,17.619 30.268,13.717 36.961,9.697 C43.653,5.677 50.345,5.677 57.038,9.697 C63.730,13.717 70.490,17.619 77.317,21.405 C84.145,25.191 87.491,30.987 87.356,38.792 C87.221,46.598 87.221,54.404 87.356,62.209 C87.491,70.015 84.145,75.811 77.317,79.597 C70.490,83.382 63.730,87.285 57.038,91.305 C50.345,95.325 43.653,95.325 36.961,91.305 Z" class="cls-1"/>
</svg>
