<svg xmlns="http://www.w3.org/2000/svg" xmlns:xlink="http://www.w3.org/1999/xlink" preserveAspectRatio="xMidYMid" width="359.81" height="622.687" viewBox="0 0 359.81 622.687">
  <defs>
    <style>
      .cls-1 {
        fill: #fff;
      }

      .cls-1, .cls-2 {
        fill-rule: evenodd;
      }

      .cls-2 {
        fill: #fbfbfb;
      }
    </style>
  </defs>
  <g>
    <path d="M332.000,135.686 L327.000,135.686 L327.000,138.687 C327.000,139.239 326.552,139.686 326.000,139.686 L308.000,139.686 C307.448,139.686 307.000,139.239 307.000,138.687 L307.000,135.686 L302.000,135.686 C301.448,135.686 301.000,135.239 301.000,134.686 L301.000,116.687 C301.000,116.134 301.448,115.687 302.000,115.687 L307.000,115.687 L307.000,108.687 C307.000,108.134 307.448,107.686 308.000,107.686 L326.000,107.686 C326.552,107.686 327.000,108.134 327.000,108.687 L327.000,115.687 L332.000,115.687 C332.552,115.687 333.000,116.134 333.000,116.687 L333.000,134.686 C333.000,135.239 332.552,135.686 332.000,135.686 ZM309.000,137.686 L325.000,137.686 L325.000,129.687 L309.000,129.687 L309.000,137.686 ZM325.000,109.686 L309.000,109.686 L309.000,115.687 L325.000,115.687 L325.000,109.686 ZM331.000,117.687 L303.000,117.687 L303.000,133.687 L305.000,133.687 L307.000,133.687 L307.000,128.687 C307.000,128.134 307.448,127.687 308.000,127.687 L326.000,127.687 C326.552,127.687 327.000,128.134 327.000,128.687 L327.000,133.687 L329.000,133.687 L331.000,133.687 L331.000,117.687 ZM325.000,121.687 L329.000,121.687 L329.000,125.687 L325.000,125.687 L325.000,121.687 ZM319.000,121.687 L323.000,121.687 L323.000,125.687 L319.000,125.687 L319.000,121.687 Z" class="cls-1"/>
    <path d="M347.541,26.702 L333.367,12.527 C333.106,12.267 333.102,11.847 333.358,11.591 L344.495,0.454 C344.751,0.198 345.171,0.201 345.432,0.462 L345.904,0.935 L346.832,0.007 L348.722,1.897 L347.794,2.825 L349.684,4.715 L352.004,2.395 C352.261,2.138 352.680,2.142 352.941,2.403 L357.666,7.128 C357.927,7.389 357.930,7.808 357.674,8.065 L355.354,10.385 L359.606,14.637 C359.867,14.898 359.871,15.317 359.615,15.574 L348.478,26.711 C348.222,26.967 347.802,26.963 347.541,26.702 ZM356.265,7.584 L352.485,3.804 L350.629,5.660 L354.409,9.440 L356.265,7.584 ZM358.206,15.093 L353.953,10.840 L349.228,6.115 L344.976,1.863 L334.767,12.072 L347.997,25.302 L358.206,15.093 ZM349.271,10.798 C350.836,12.364 350.859,14.880 349.321,16.417 C347.784,17.955 345.268,17.933 343.702,16.367 C342.137,14.801 342.114,12.285 343.652,10.747 C345.189,9.210 347.705,9.232 349.271,10.798 ZM344.630,15.439 C345.674,16.482 347.351,16.498 348.376,15.472 C349.402,14.447 349.386,12.770 348.343,11.726 C347.299,10.682 345.622,10.667 344.597,11.692 C343.571,12.718 343.587,14.395 344.630,15.439 Z" class="cls-1"/>
    <path d="M292.862,44.791 L298.050,64.154 C298.145,64.510 297.939,64.876 297.589,64.969 L291.250,66.668 L288.714,67.347 L288.081,67.517 L288.081,67.517 L286.905,67.832 C286.788,67.882 286.657,67.898 286.522,67.857 L276.837,64.901 C276.615,64.833 276.467,64.640 276.405,64.420 L276.382,64.425 L276.209,63.780 L276.036,63.135 L274.307,56.681 L274.134,56.035 L273.961,55.390 L273.984,55.383 C273.927,55.162 273.959,54.920 274.117,54.751 L280.960,47.419 C281.006,47.364 281.059,47.319 281.122,47.281 C281.196,47.228 281.275,47.195 281.361,47.181 L282.546,46.863 L283.180,46.693 L292.055,44.315 C292.405,44.222 292.766,44.435 292.862,44.791 ZM283.526,47.984 L282.892,48.154 L281.797,48.448 L275.319,55.388 L275.401,55.695 L277.477,63.441 L277.559,63.748 L286.639,66.520 L287.101,66.396 L287.735,66.226 L288.369,66.056 L290.904,65.377 L296.609,63.848 L291.767,45.776 L283.526,47.984 ZM280.012,62.761 L279.980,62.642 L279.973,62.640 L279.976,62.626 L277.973,55.151 L277.964,55.141 L277.969,55.136 L277.937,55.016 L278.133,54.964 L281.682,51.242 L282.637,52.243 L282.470,52.418 L282.662,52.366 L283.008,53.657 L284.276,53.318 L284.910,53.148 L285.544,52.978 L287.273,59.432 L287.446,60.078 L287.619,60.723 L285.083,61.403 L285.429,62.694 L285.238,62.745 L285.469,62.813 L285.142,64.157 L280.208,62.709 L280.012,62.761 ZM283.986,62.377 L283.470,60.451 L284.737,60.112 L286.005,59.772 L284.622,54.609 L283.354,54.948 L282.720,55.118 L282.086,55.288 L281.570,53.362 L279.449,55.587 L281.036,61.511 L283.986,62.377 Z" class="cls-1"/>
    <path d="M229.238,131.866 C229.307,132.034 229.283,132.469 229.184,133.111 C229.135,133.549 229.061,133.981 228.945,134.405 C227.788,140.039 224.000,152.811 224.000,152.811 C224.000,152.811 211.046,149.705 205.587,147.891 C205.163,147.779 204.751,147.627 204.348,147.451 C203.741,147.215 203.353,147.019 203.242,146.875 C202.102,146.161 201.113,145.169 200.394,143.923 C198.046,139.858 199.439,134.660 203.505,132.312 C206.318,130.688 209.673,130.857 212.251,132.461 C212.151,129.427 213.682,126.436 216.495,124.812 C220.561,122.465 225.759,123.858 228.106,127.924 C228.826,129.170 229.190,130.522 229.238,131.866 ZM217.495,126.545 C217.242,126.691 217.007,126.857 216.781,127.030 C216.723,127.075 216.667,127.120 216.611,127.166 C216.410,127.332 216.218,127.506 216.041,127.692 C216.026,127.708 216.009,127.722 215.994,127.738 C215.800,127.946 215.625,128.166 215.462,128.395 C215.431,128.438 215.402,128.482 215.373,128.526 C215.229,128.738 215.098,128.957 214.981,129.182 L214.964,129.161 C214.964,129.161 214.823,129.487 214.633,129.990 C214.625,130.012 214.614,130.032 214.606,130.055 C214.601,130.069 214.597,130.084 214.592,130.098 C214.201,131.153 213.627,132.938 213.500,134.624 C211.976,133.891 210.143,133.496 209.034,133.307 C209.019,133.304 209.004,133.301 208.989,133.297 C208.966,133.293 208.943,133.293 208.920,133.289 C208.390,133.201 208.036,133.160 208.036,133.160 L208.047,133.186 C207.793,133.175 207.538,133.179 207.282,133.197 C207.229,133.201 207.177,133.204 207.124,133.208 C206.845,133.236 206.566,133.277 206.289,133.341 C206.268,133.346 206.247,133.353 206.226,133.359 C205.976,133.419 205.730,133.498 205.485,133.589 C205.417,133.615 205.350,133.641 205.283,133.668 C205.019,133.777 204.758,133.898 204.505,134.044 C201.396,135.839 200.331,139.815 202.126,142.923 C202.253,143.145 202.395,143.352 202.543,143.553 C202.588,143.612 202.635,143.667 202.681,143.725 C202.793,143.865 202.908,144.000 203.029,144.129 C203.082,144.185 203.136,144.240 203.191,144.294 C203.320,144.421 203.454,144.543 203.593,144.658 C203.640,144.698 203.687,144.739 203.736,144.778 C203.924,144.926 204.119,145.066 204.321,145.192 L204.321,145.192 C204.470,145.284 204.628,145.358 204.783,145.438 C204.782,145.441 204.781,145.455 204.780,145.459 C204.657,146.093 221.888,150.430 222.677,150.520 C222.994,149.791 227.854,132.701 227.243,132.490 C227.239,132.489 227.227,132.483 227.223,132.482 C227.231,132.307 227.247,132.134 227.241,131.959 L227.241,131.959 C227.233,131.721 227.209,131.482 227.175,131.245 C227.166,131.183 227.154,131.123 227.143,131.061 C227.112,130.883 227.075,130.707 227.028,130.531 C227.009,130.456 226.989,130.382 226.966,130.309 C226.916,130.139 226.856,129.972 226.791,129.805 C226.764,129.737 226.740,129.668 226.710,129.600 C226.611,129.371 226.502,129.144 226.374,128.923 C224.579,125.815 220.604,124.749 217.495,126.545 Z" class="cls-1"/>
    <path d="M296.383,244.315 L269.355,217.273 C268.857,216.776 268.857,215.969 269.355,215.471 L291.781,193.035 C291.844,192.954 291.913,192.885 291.994,192.821 L292.779,192.035 C293.277,191.538 294.084,191.538 294.581,192.035 L321.610,219.076 C322.108,219.574 322.108,220.382 321.610,220.879 L298.185,244.315 C297.688,244.813 296.881,244.813 296.383,244.315 ZM272.057,216.372 L297.284,241.610 L317.627,221.259 L293.684,221.236 C292.966,221.292 291.440,219.704 291.522,219.073 L291.500,196.920 L272.057,216.372 ZM294.048,218.709 L317.662,218.732 L294.025,195.084 L294.048,218.709 Z" class="cls-1"/>
    <path d="M239.953,267.317 L238.575,268.113 C238.574,268.113 238.574,268.114 238.573,268.114 L219.250,279.270 L199.927,290.427 C199.926,290.427 199.926,290.428 199.925,290.428 L198.547,291.223 C197.784,291.664 196.810,291.402 196.369,290.640 L180.432,263.035 C179.992,262.273 180.253,261.298 181.015,260.858 L187.916,256.874 C183.587,249.375 186.008,239.924 193.307,235.389 C193.457,235.296 193.596,235.192 193.750,235.103 C193.904,235.014 194.064,234.946 194.219,234.863 C201.796,230.809 211.191,233.437 215.521,240.936 L222.422,236.952 C223.184,236.512 224.159,236.773 224.599,237.535 L240.537,265.140 C240.977,265.902 240.716,266.877 239.953,267.317 ZM195.344,237.863 C189.246,241.384 187.156,249.182 190.677,255.280 C191.235,256.247 191.910,257.100 192.659,257.859 L192.629,257.864 C192.629,257.864 192.751,257.984 192.978,258.184 C193.546,258.719 194.160,259.192 194.805,259.608 C197.659,261.622 203.229,264.695 210.996,264.974 C214.638,258.108 214.762,251.747 214.445,248.269 C214.407,247.502 214.305,246.735 214.125,245.974 C214.065,245.678 214.022,245.512 214.022,245.512 L214.003,245.536 C213.720,244.508 213.319,243.496 212.761,242.530 C209.240,236.432 201.442,234.343 195.344,237.863 ZM232.198,257.072 L222.636,240.509 L216.853,243.848 C216.936,244.065 219.660,251.340 214.574,265.094 C214.574,265.094 213.393,267.929 212.875,268.228 C212.357,268.527 209.312,268.133 209.312,268.133 C194.856,265.660 189.918,259.663 189.772,259.483 L183.989,262.822 L193.552,279.384 L198.333,287.666 L217.656,276.510 L236.979,265.353 L232.198,257.072 ZM204.906,254.426 C201.857,256.186 197.958,255.142 196.198,252.092 C194.437,249.044 195.482,245.145 198.531,243.384 C201.580,241.624 205.479,242.669 207.240,245.718 C209.000,248.767 207.955,252.666 204.906,254.426 ZM200.125,246.145 C198.600,247.025 198.078,248.974 198.958,250.499 C199.838,252.024 201.788,252.546 203.312,251.666 C204.837,250.785 205.359,248.836 204.479,247.311 C203.599,245.787 201.650,245.264 200.125,246.145 Z" class="cls-1"/>
    <path d="M209.240,399.232 L171.454,361.446 C170.759,360.751 170.759,359.623 171.454,358.927 L209.240,321.141 C209.936,320.445 211.064,320.445 211.760,321.141 L213.019,322.401 L213.019,322.401 L215.538,324.919 L215.538,324.919 L220.576,329.958 L220.576,329.958 L223.095,332.477 L223.095,332.477 L236.950,346.332 L236.950,346.332 L239.469,348.851 L239.469,348.851 L244.507,353.889 L244.507,353.889 L247.026,356.408 L247.027,356.408 L249.546,358.927 C250.241,359.623 250.241,360.751 249.545,361.446 L211.759,399.232 C211.064,399.928 209.936,399.928 209.240,399.232 ZM245.767,360.186 L210.500,324.919 L205.462,329.958 L240.729,365.225 L245.767,360.186 ZM235.691,370.263 L236.950,369.003 L238.210,367.744 L202.943,332.477 L201.683,333.736 L200.424,334.996 L197.905,337.515 L197.905,337.515 L175.233,360.186 L210.500,395.453 L233.172,372.782 L233.172,372.782 L235.691,370.263 ZM210.500,372.782 L215.538,377.820 L210.500,382.858 L205.462,377.820 L210.500,372.782 ZM220.576,362.706 L225.614,367.744 L220.576,372.782 L215.538,367.744 L220.576,362.706 ZM201.683,363.965 L206.721,369.003 L201.683,374.041 L196.645,369.003 L201.683,363.965 ZM211.759,353.889 L216.798,358.927 L211.759,363.965 L206.721,358.927 L211.759,353.889 ZM192.866,355.148 L197.905,360.186 L192.866,365.225 L187.828,360.186 L192.866,355.148 ZM202.943,345.072 L207.981,350.110 L202.943,355.148 L197.905,350.110 L202.943,345.072 Z" class="cls-1"/>
    <path d="M149.500,530.687 L149.500,524.937 L184.000,524.937 L184.000,530.687 L149.500,530.687 ZM128.498,486.078 L152.830,461.746 L160.940,469.857 L136.608,494.189 L128.498,486.078 ZM138.000,530.687 L126.500,530.687 C126.500,530.687 126.500,530.687 126.500,530.686 C126.500,511.633 111.054,496.186 92.000,496.186 C72.946,496.186 57.500,511.633 57.500,530.686 C57.500,530.687 57.500,530.687 57.500,530.687 L46.000,530.687 C46.000,530.687 46.000,530.687 46.000,530.686 C46.000,505.281 66.595,484.686 92.000,484.686 C117.405,484.686 138.000,505.281 138.000,530.686 C138.000,530.687 138.000,530.687 138.000,530.687 ZM86.250,438.687 L97.750,438.687 L97.750,473.187 L86.250,473.187 L86.250,438.687 ZM23.060,469.857 L31.170,461.746 L55.502,486.078 L47.392,494.189 L23.060,469.857 ZM34.500,530.687 L0.000,530.687 L0.000,524.937 L34.500,524.937 L34.500,530.687 Z" class="cls-2"/>
  </g>
</svg>
